<svg viewBox="0 0 24 24" ><path d="m15.228 16.852-.923-.383"  fill="currentColor" stroke="none"/><path d="m15.228 19.148-.923.383"  fill="currentColor" stroke="none"/><path d="M16 2v3"  fill="currentColor" stroke="none"/><path d="m16.47 14.305.382.923"  fill="currentColor" stroke="none"/><path d="m16.852 20.772-.383.924"  fill="currentColor" stroke="none"/><path d="m19.148 15.228.383-.923"  fill="currentColor" stroke="none"/><path d="m19.53 21.696-.382-.924"  fill="currentColor" stroke="none"/><path d="m20.773 16.852.924-.383"  fill="currentColor" stroke="none"/><path d="m20.773 19.148.924.383"  fill="currentColor" stroke="none"/><path d="M21 10.5V5a2 2 0 00-2-2H5a2 2 0 00-2 2v14a2 2 0 002 2h5.5"  fill="currentColor" stroke="none"/><path d="M3 9h18"  fill="currentColor" stroke="none"/><path d="M8 2v3"  fill="currentColor" stroke="none"/><circle cx="18" cy="18" r="3"  fill="currentColor" stroke="none"/></svg>
